# xmcd CD database file
#
# Track frame offsets:
#	182
#	16255
#	35262
#	48170
#	61490
#	78527
#	90097
#	108692
#	125335
#	139880
#	152982
#	165640
#
# Disc length: 2427 seconds
#
# Revision: 0
# Processed by: cddbd v1.5PL3 Copyright (c) Steve Scherf et al.
# Submitted via: CDex 1.51
#
DISCID=9309790c
DTITLE=George Hamilton IV - American Country Gothic
DYEAR=1989
DGENRE=Country
TTITLE0=If I Never See Midnight Again
TTITLE1=My Hometown
TTITLE2=This is Our Love
TTITLE3=Little Country County Fairs
TTITLE4=Farmer's Dream Ploughed Under
TTITLE5=Never Mind
TTITLE6=I Will Be Your Friend
TTITLE7=More About Love
TTITLE8=Heaven Knows
TTITLE9=Back UP Grinnin' Again
TTITLE10=Carolina Sky
TTITLE11=I Believe in You
EXTD=YEAR: 1989
EXTT0=
EXTT1=
EXTT2=
EXTT3=
EXTT4=
EXTT5=
EXTT6=
EXTT7=
EXTT8=
EXTT9=
EXTT10=
EXTT11=
PLAYORDER=
